inDegrees=no
num_controls=7
num_derivatives=13
num_iterations=136
num_multipliers=7
num_parameters=0
num_slacks=7
num_states=26
objective=6.006145
objective_accelerations=0.389269
objective_balance=0.018401
objective_effort=0.423073
objective_height=5.064304
objective_ligament=0.111098
solver_duration=1169.533239
status=Solve_Succeeded
success=true
DataType=double
version=3
OpenSimVersion=4.4-2022-07-23-0e9fedc
endheader
time	/jointset/ground_pelvis/pelvis_tilt/value	/jointset/ground_pelvis/pelvis_tx/value	/jointset/ground_pelvis/pelvis_ty/value	/jointset/hip_r/hip_flexion_r/value	/jointset/hip_r/hip_adduction_r/value	/jointset/hip_r/hip_rotation_r/value	/jointset/back/lumbar_extension/value	/jointset/patellofemoral_r/patellar_flexion_r/value	/jointset/knee_r/knee_flexion_r/value	/jointset/knee_r/knee_adduction_r/value	/jointset/knee_r/knee_rotation_r/value	/jointset/ankle_r/ankle_angle_r/value	/jointset/subtalar_r/subtalar_angle_r/value	/jointset/ground_pelvis/pelvis_tilt/speed	/jointset/ground_pelvis/pelvis_tx/speed	/jointset/ground_pelvis/pelvis_ty/speed	/jointset/hip_r/hip_flexion_r/speed	/jointset/hip_r/hip_adduction_r/speed	/jointset/hip_r/hip_rotation_r/speed	/jointset/back/lumbar_extension/speed	/jointset/patellofemoral_r/patellar_flexion_r/speed	/jointset/knee_r/knee_flexion_r/speed	/jointset/knee_r/knee_adduction_r/speed	/jointset/knee_r/knee_rotation_r/speed	/jointset/ankle_r/ankle_angle_r/speed	/jointset/subtalar_r/subtalar_angle_r/speed	/forceset/tau_hip_flexion_r	/forceset/tau_hip_adduction_r	/forceset/tau_hip_rotation_r	/forceset/tau_knee_flexion_r	/forceset/tau_ankle_angle_r	/forceset/tau_subtalar_angle_r	/forceset/tau_lumbar_extension	lambda_cid13_p0	lambda_cid14_p0	lambda_cid14_p1	lambda_cid14_p2	lambda_cid14_p3	lambda_cid14_p4	lambda_cid14_p5	/jointset/ground_pelvis/pelvis_tilt/accel	/jointset/ground_pelvis/pelvis_tx/accel	/jointset/ground_pelvis/pelvis_ty/accel	/jointset/hip_r/hip_flexion_r/accel	/jointset/hip_r/hip_adduction_r/accel	/jointset/hip_r/hip_rotation_r/accel	/jointset/back/lumbar_extension/accel	/jointset/patellofemoral_r/patellar_flexion_r/accel	/jointset/knee_r/knee_flexion_r/accel	/jointset/knee_r/knee_adduction_r/accel	/jointset/knee_r/knee_rotation_r/accel	/jointset/ankle_r/ankle_angle_r/accel	/jointset/subtalar_r/subtalar_angle_r/accel	gamma_cid13_p0	gamma_cid14_p0	gamma_cid14_p1	gamma_cid14_p2	gamma_cid14_p3	gamma_cid14_p4	gamma_cid14_p5
0	-0.006516717466380159	0.09626122220567578	0.9427240279266805	0.1762555651711513	-0.2321527090236076	-0.2616407693399582	-0.0385979564078546	0.07317816487762077	0.07317816487761825	0.1745329246832469	0.1745329226063438	0.0324735960626065	-0.003451805746727291	0	0	0	0	0	0	0	0	0	0	0	0	0	0.2231976184496232	-0.1363650793164944	-0.04546520538049906	-0.4119423697477311	0.4196436137951695	-0.1709666619172466	-0.1181810305266575	-39.07617658055766	83.92095038723924	-49.6316651684765	-2.964358950666651	-37.77106532685326	-682.1641146597561	37.19046362034017	-1.530615425389429	-0.8632893847281816	-0.483040179848347	7.433105395931433	0.3426534902802257	2.056363460045455	-4.812963455922995	7.980154409941066	7.980154409941358	-2.84328600389179	0.1661257396701393	2.888677391234665	1.015488450171241	8.35647628365012e-08	5.132118649492197e-08	-5.358773137582713e-07	1.979846299163722e-07	2.87317478895657e-08	7.462145004026833e-09	-3.089729675364495e-07
0.01	-0.006587617581160344	0.09621851554325817	0.9427008485184666	0.1766151923281313	-0.2321345864855513	-0.2615307667744394	-0.03884009216561533	0.0735660054667501	0.0735660054667564	0.1743909442349071	0.1745308889646145	0.03261453015242132	-0.003400883181142933	-0.01409904342769379	-0.008521090681376893	-0.00462688422953122	0.07160578723240814	0.003556807278609477	0.02189831350285105	-0.04809301470317957	0.07724279038284161	0.0772427903828401	-0.02816036516242051	-0.0003964155421510901	0.02803223835317175	0.01007833403292002	0.2168732345627274	-0.1709366106989004	-0.04340274410597104	-0.4026838032421357	0.3983081032415681	-0.1335453672910792	-0.1132216935370552	-39.08899327952303	78.48079245083458	-34.51481062574708	-5.16573370126133	-35.04915189904	-682.3870982271997	66.80291009716611	-1.337395714506122	-0.8434768930858312	-0.4511614400880928	6.976374634409913	0.3519927813058312	2.241280550595082	-4.757349950137954	7.547525522933163	7.547525522932829	-2.767114157434029	-0.1409251308299852	2.737324484082994	0.9880173554847199	1.161212605439765e-07	6.539603531765518e-08	-7.306265282882341e-07	2.107420409116202e-07	4.878652515583222e-08	-1.024158208964307e-07	-3.724114125255655e-07
0.02	-0.006797077512826793	0.0960912063773782	0.9426316704888406	0.1776812892069397	-0.2320829361877771	-0.2612048380228516	-0.03955313396493232	0.07471651079381365	0.07471651079381476	0.1739744196579134	0.1745252111814719	0.03303115211111333	-0.003252374980102906	-0.02771196337724802	-0.01692050069247211	-0.009199724282389873	0.1412939443653917	0.006705551943399834	0.04318523721330904	-0.09418120831125851	0.1525329475847817	0.1525329475847796	-0.05490882572550994	-0.0007288282711897518	0.05513757377532756	0.01951712709113154	0.210548850675831	-0.205508142081312	-0.04134028283154548	-0.3934252367365376	0.3769725926879583	-0.09612407266491786	-0.1082623565474439	-39.12695339675904	73.1122812181253	-19.40249344728262	-7.34687145039699	-32.47735891105584	-681.5184628366535	96.20100129904746	-1.433390729761518	-0.8389532506718159	-0.4722313445138348	7.049579376046472	0.2610409675163662	1.934085501566788	-4.411999236902856	7.589627773760776	7.589627773761253	-2.560905084025502	0.1789263022926933	2.703296805031508	0.8875802552295111	1.486777582514518e-07	7.947088414038839e-08	-9.253757428181969e-07	2.234994519068682e-07	6.884130242209874e-08	-2.122937867968883e-07	-4.358498575146815e-07
0.03	-0.007140494083611188	0.0958804397489177	0.9425168563623385	0.1794352629771974	-0.2320017557207636	-0.2606709758479596	-0.04071709001042333	0.07661080218082178	0.07661080218082317	0.1732974414501164	0.1745182425870742	0.03371425534247229	-0.003012524535831971	-0.04088461056395944	-0.02521813876947384	-0.01376619152509434	0.2091806908243152	0.009472030916397143	0.06348002399081928	-0.1383127483319365	0.2259943505457142	0.225994350545711	-0.08025412220669795	-0.0006761239706106869	0.0813191407182514	0.02835637141295869	0.2038832496002544	-0.1888831631075908	-0.03969584715810259	-0.3844442799242852	0.3665447406139731	-0.1056461537847391	-0.1030882881319077	-39.18919860914489	69.43110515490326	-24.16590094498428	-6.606392531858419	-29.7797393680422	-681.020969082658	85.44953478835504	-1.246173822672336	-0.8229523023213506	-0.4493608929226415	6.610216764878275	0.2755773646486185	2.061157133372154	-4.369143516375364	7.174719799548885	7.174719799548454	-2.486558192643599	-0.08316997693641903	2.551026957405445	0.8674867952576872	1.616478152204079e-07	8.181755752580649e-08	-1.001233648523626e-06	2.117570290812188e-07	8.072454843448008e-08	-2.99539863063114e-07	-4.482253846773887e-07
0.04	-0.00761303154817105	0.09558714009646584	0.9423562762676546	0.1818585031088583	-0.2318946852635286	-0.2599373694317854	-0.04231344388246555	0.0792297722458951	0.07922977224589564	0.1723739670250072	0.174511478541505	0.03465426230695747	-0.002687203593423085	-0.05353614213252115	-0.03342710549074662	-0.01835291791877408	0.2751472166457531	0.01188354998768281	0.08313408546949029	-0.1806607736216171	0.2974686831982233	0.2974686831982182	-0.1042080691870076	-0.0006879185051088182	0.1065183204004832	0.03661122671871912	0.1972176485246809	-0.1722581841338746	-0.03805141148464545	-0.37546332311204	0.3561168885399836	-0.1151682349045666	-0.09791421971636262	-39.27453815225766	65.81496881781776	-28.94168028913401	-5.836800457752752	-27.2150056136139	-679.5088912889941	74.48148587917503	-1.329167606131572	-0.8212189795259961	-0.4762831747088908	6.665535248549309	0.1900489871740036	1.805940441798919	-4.055296290703358	7.192213712076098	7.192213712076416	-2.282635183849762	0.1660265352772871	2.506819352893138	0.770702452016137	1.742140280504254e-07	8.392241286097069e-08	-1.074640187036797e-06	1.995094550427673e-07	9.243930926636893e-08	-3.863193024296649e-07	-4.595480681735721e-07
0.05	-0.008210004956606433	0.09521243318645456	0.942149549349078	0.1849323305798969	-0.2317654416235665	-0.2590118822721704	-0.0443239993005095	0.08255428379998821	0.08255428379998429	0.1712183252866251	0.1745057531368688	0.0358417781251629	-0.00228230062149619	-0.06578430070532304	-0.04147393456517032	-0.02300568348288777	0.3392869392036212	0.01391272419863462	0.1018556690123544	-0.2211575540669899	0.3671099709478296	0.3671099709478103	-0.126690540385185	-0.0004815271175919763	0.1308555483206979	0.04428848623545482	0.1912601722104424	-0.1701211905082072	-0.03641665787082504	-0.3691000246414159	0.3463836307184956	-0.1118241092009186	-0.09317206927995579	-39.38163954127322	62.89345052064954	-28.08397375178116	-5.878610604759896	-25.64027562727622	-678.4819092715084	74.95159839165504	-1.161481271078591	-0.7903449968442081	-0.4618338653236997	6.23850509556152	0.2013633389741135	1.889172948009769	-4.002955533407858	6.801502861466406	6.801502861464066	-2.196738964002714	-0.05563552795307901	2.377817425485498	0.7539578713433783	1.715118476039085e-07	7.870303514955314e-08	-1.049878062782246e-06	1.982582329774089e-07	9.628415320875313e-08	-4.413966207414286e-07	-4.597976837127669e-07
0.06	-0.008927228208413908	0.09475847196061039	0.9418958826512479	0.1886376181437475	-0.2316175039013103	-0.2579023981496287	-0.04673073984539727	0.08656549154257116	0.08656549154257111	0.1698447216610304	0.1745013754524571	0.03726879480535122	-0.001803081020433795	-0.07758611080707729	-0.0492779686573241	-0.02774087376947069	0.4014392352077287	0.01562236644632029	0.1199334780544009	-0.2598977989905064	0.4348079208999762	0.4348079208999399	-0.1478004466313979	-0.0004183744677558643	0.1544184927969096	0.05147455254583268	0.1853026958962041	-0.1679841968825445	-0.03478190425685837	-0.3627367261708328	0.3366503728969961	-0.1084799834972805	-0.08842991884353561	-39.50889558545898	60.03135210316786	-27.23042141665371	-5.903128451660614	-24.1916008233541	-676.5470941801896	75.23910119800307	-1.239897911922039	-0.7726599830719856	-0.4927681192027374	6.268049937797151	0.1261425945207455	1.677185541635378	-3.703989186332097	6.803546152584152	6.803546152583933	-2.008122193456792	0.137378787741163	2.351962664092575	0.6724638107445401	1.681667874404849e-07	7.317526867827951e-08	-1.020982521148002e-06	1.974700152056545e-07	9.979763222947396e-08	-4.951391129035171e-07	-4.595810648116676e-07
0.07000000000000001	-0.009760676446524553	0.09422766000563633	0.9415943077965047	0.1929552697267979	-0.2314540656927303	-0.2566171129380881	-0.04951578222822125	0.09124472018160154	0.09124472018159767	0.1682669287190861	0.1744986970893354	0.03892771721263916	-0.001254386392685364	-0.08903473708456106	-0.05684432352214223	-0.03259489560676249	0.4617666354206243	0.01702474196722714	0.1370057606760265	-0.2968239356132665	0.5007096845282973	0.5007096845282931	-0.1675437582143297	-0.0001457625437200118	0.1772347228868629	0.05819662658936184	0.1790619129559906	-0.1636381760400304	-0.0330678208702303	-0.3567272964102196	0.3273885600488749	-0.1066068531917704	-0.0834650382275226	-39.65460812098683	57.23149064095758	-27.00849555749883	-5.822756086503094	-22.69785241650528	-675.1190951149246	74.19061293273923	-1.087000053445806	-0.74258841369649	-0.4849386593769731	5.866433431722657	0.1410985458467462	1.704634566277976	-3.643914606069933	6.434239518585557	6.434239518590457	-1.925413774879827	-0.0319974690550314	2.226798554401292	0.6617788913445032	1.548061045945979e-07	6.409165395947222e-08	-9.229949978551762e-07	1.941663922957586e-07	9.698633009818172e-08	-5.251505802062513e-07	-4.387768006604716e-07
